<?xml version="1.0" standalone="no"?>
<!DOCTYPE svg PUBLIC "-//W3C//DTD SVG 20010904//EN"
 "http://www.w3.org/TR/2001/REC-SVG-20010904/DTD/svg10.dtd">
<svg version="1.0" xmlns="http://www.w3.org/2000/svg"
 width="270.000000pt" height="270.000000pt" viewBox="0 0 270.000000 270.000000"
 preserveAspectRatio="xMidYMid meet">
<metadata>
Created by potrace 1.11, written by Peter Selinger 2001-2013
</metadata>
<g transform="translate(0.000000,270.000000) scale(0.100000,-0.100000)"
fill="#000000" stroke="none">
<path d="M0 1350 l0 -1350 1350 0 1350 0 0 1350 0 1350 -1350 0 -1350 0 0
-1350z m975 1055 c158 -41 303 -157 378 -301 20 -40 37 -76 37 -82 0 -7 -127
-65 -310 -140 -4 -2 -21 21 -38 51 -34 60 -89 112 -140 134 -95 40 -237 23
-320 -37 -52 -38 -72 -76 -72 -140 0 -119 84 -185 345 -270 334 -109 496 -232
575 -435 20 -51 24 -78 24 -185 1 -105 -3 -136 -23 -193 -49 -144 -146 -250
-296 -322 -190 -91 -389 -104 -593 -40 -172 54 -326 193 -412 369 -75 154 -85
133 97 204 87 34 165 64 174 67 13 5 20 -3 29 -32 37 -112 118 -216 202 -259
98 -50 249 -48 342 5 133 74 154 234 47 341 -57 56 -147 103 -322 169 -191 71
-223 86 -299 136 -190 127 -282 312 -250 509 39 246 208 410 475 462 86 17
266 11 350 -11z m1575 -780 l0 -115 -287 -2 -288 -3 -3 -152 -3 -153 261 0
260 0 0 -120 0 -120 -262 0 -261 0 6 -182 c4 -101 4 -216 0 -255 l-6 -73 -117
0 -118 0 -3 168 c-2 92 -2 382 0 645 l3 477 409 0 409 0 0 -115z"/>
</g>
</svg>
